<svg xmlns="http://www.w3.org/2000/svg" viewBox="0 0 180 180" fill="none">
  <!-- Background -->
  <rect width="180" height="180" rx="40" fill="#1E3A8A"/>
  
  <!-- Location Pin -->
  <path d="M90 25C67.36 25 49 43.36 49 66c0 42.19 41 80 41 80s41-37.81 41-80c0-22.64-18.36-41-41-41z" fill="#3B82F6" stroke="#60A5FA" stroke-width="4"/>
  
  <!-- Sun inside pin -->
  <circle cx="90" cy="60" r="18" fill="#FBBF24" stroke="#F59E0B" stroke-width="3"/>
  
  <!-- Sun rays -->
  <g stroke="#F59E0B" stroke-width="4" stroke-linecap="round">
    <line x1="90" y1="32" x2="90" y2="38"/>
    <line x1="90" y1="82" x2="90" y2="88"/>
    <line x1="62" y1="60" x2="68" y2="60"/>
    <line x1="112" y1="60" x2="118" y2="60"/>
    <line x1="70" y1="40" x2="74.5" y2="44.5"/>
    <line x1="105.5" y1="75.5" x2="110" y2="80"/>
    <line x1="110" y1="40" x2="105.5" y2="44.5"/>
    <line x1="74.5" y1="75.5" x2="70" y2="80"/>
  </g>
</svg>
